<svg width="300" height="300" viewBox="0 0 300 300" fill="none" xmlns="http://www.w3.org/2000/svg">
<g clip-path="url(#clip0)">
<rect width="300" height="300" fill="#EAFF98"/>
<path d="M61.1094 41H63.6494L67.8094 51.72H67.8694L72.0294 41H74.5694V55H72.8694V43.66H72.7894L68.4494 55H67.2094L62.8894 43.66H62.8094V55H61.1094V41ZM82.0142 55.14C80.9342 55.14 80.0209 54.88 79.2742 54.36C78.5409 53.84 77.9942 53.16 77.6342 52.32C77.2742 51.48 77.0942 50.5933 77.0942 49.66C77.0942 48.7133 77.2742 47.8267 77.6342 47C77.9942 46.16 78.5476 45.48 79.2942 44.96C80.0409 44.44 80.9542 44.18 82.0342 44.18C83.4476 44.18 84.5742 44.6533 85.4142 45.6C86.2676 46.5467 86.6942 47.9067 86.6942 49.68V50.16H78.8142V50.3C78.8142 50.8867 78.9476 51.44 79.2142 51.96C79.4809 52.48 79.8542 52.9 80.3342 53.22C80.8142 53.54 81.3676 53.7 81.9942 53.7C82.6742 53.7 83.2609 53.5267 83.7542 53.18C84.2476 52.8333 84.6142 52.3667 84.8542 51.78H86.5542C86.2742 52.74 85.7476 53.54 84.9742 54.18C84.2142 54.82 83.2276 55.14 82.0142 55.14ZM84.9942 48.94C84.9409 47.74 84.6476 46.8733 84.1142 46.34C83.5809 45.8067 82.8809 45.54 82.0142 45.54C81.0676 45.54 80.3142 45.8533 79.7542 46.48C79.1942 47.1067 78.8942 47.9267 78.8542 48.94H84.9942ZM89.2344 44.46H90.9544V46.36H91.1144C91.381 45.7467 91.8144 45.2333 92.4144 44.82C93.0144 44.3933 93.7477 44.18 94.6144 44.18C95.5077 44.18 96.2544 44.3933 96.8544 44.82C97.4544 45.2333 97.8944 45.7867 98.1744 46.48C98.4677 47.16 98.6144 47.9 98.6144 48.7V55H96.8944V48.92C96.8944 47.88 96.621 47.0867 96.0744 46.54C95.541 45.9933 94.841 45.72 93.9744 45.72C93.0544 45.72 92.321 46.02 91.7744 46.62C91.2277 47.2067 90.9544 47.9733 90.9544 48.92V55H89.2344V44.46ZM103.91 45.84V51.96C103.91 52.4533 103.93 52.82 103.97 53.06C104.023 53.2867 104.15 53.4667 104.35 53.6C104.563 53.7333 104.903 53.8 105.37 53.8C105.69 53.8 106.037 53.7533 106.41 53.66V54.9C106.317 54.94 106.11 54.98 105.79 55.02C105.483 55.06 105.163 55.08 104.83 55.08C104.057 55.08 103.477 54.9733 103.09 54.76C102.717 54.5333 102.47 54.2333 102.35 53.86C102.243 53.4733 102.19 52.9667 102.19 52.34V45.84H100.23V44.46H102.19V41H103.91V44.46H106.41V45.84H103.91ZM112.801 55.14C111.868 55.14 111.068 54.9 110.401 54.42C109.748 53.94 109.248 53.2867 108.901 52.46C108.555 51.6333 108.381 50.7 108.381 49.66C108.381 48.62 108.555 47.6867 108.901 46.86C109.261 46.02 109.775 45.3667 110.441 44.9C111.121 44.42 111.928 44.18 112.861 44.18C113.795 44.18 114.548 44.4 115.121 44.84C115.695 45.28 116.128 45.8067 116.421 46.42H116.561V44.46H118.301V55H116.561V52.84H116.421C116.101 53.4667 115.648 54.0067 115.061 54.46C114.475 54.9133 113.721 55.14 112.801 55.14ZM113.341 53.66C114.368 53.66 115.155 53.28 115.701 52.52C116.248 51.7467 116.521 50.7933 116.521 49.66C116.521 48.5267 116.248 47.58 115.701 46.82C115.155 46.0467 114.368 45.66 113.341 45.66C112.288 45.66 111.488 46.04 110.941 46.8C110.408 47.56 110.141 48.5067 110.141 49.64C110.141 50.7867 110.408 51.7467 110.941 52.52C111.488 53.28 112.288 53.66 113.341 53.66ZM124.044 55.08C123.257 55.08 122.67 54.9533 122.284 54.7C121.897 54.4467 121.65 54.12 121.544 53.72C121.45 53.3067 121.404 52.7733 121.404 52.12L121.424 40H123.144V51.86C123.144 52.3667 123.164 52.7467 123.204 53C123.257 53.24 123.384 53.4333 123.584 53.58C123.797 53.7267 124.13 53.8 124.584 53.8C124.864 53.8 125.11 53.78 125.324 53.74V54.98C124.964 55.0467 124.537 55.08 124.044 55.08ZM142.822 41V55H141.082V48.66H133.962V55H132.242V41H133.962V47.26H141.082V41H142.822ZM150.256 55.14C149.176 55.14 148.263 54.88 147.516 54.36C146.783 53.84 146.236 53.16 145.876 52.32C145.516 51.48 145.336 50.5933 145.336 49.66C145.336 48.7133 145.516 47.8267 145.876 47C146.236 46.16 146.79 45.48 147.536 44.96C148.283 44.44 149.196 44.18 150.276 44.18C151.69 44.18 152.816 44.6533 153.656 45.6C154.51 46.5467 154.936 47.9067 154.936 49.68V50.16H147.056V50.3C147.056 50.8867 147.19 51.44 147.456 51.96C147.723 52.48 148.096 52.9 148.576 53.22C149.056 53.54 149.61 53.7 150.236 53.7C150.916 53.7 151.503 53.5267 151.996 53.18C152.49 52.8333 152.856 52.3667 153.096 51.78H154.796C154.516 52.74 153.99 53.54 153.216 54.18C152.456 54.82 151.47 55.14 150.256 55.14ZM153.236 48.94C153.183 47.74 152.89 46.8733 152.356 46.34C151.823 45.8067 151.123 45.54 150.256 45.54C149.31 45.54 148.556 45.8533 147.996 46.48C147.436 47.1067 147.136 47.9267 147.096 48.94H153.236ZM161.337 55.14C160.403 55.14 159.603 54.9 158.937 54.42C158.283 53.94 157.783 53.2867 157.437 52.46C157.09 51.6333 156.917 50.7 156.917 49.66C156.917 48.62 157.09 47.6867 157.437 46.86C157.797 46.02 158.31 45.3667 158.977 44.9C159.657 44.42 160.463 44.18 161.397 44.18C162.33 44.18 163.083 44.4 163.657 44.84C164.23 45.28 164.663 45.8067 164.957 46.42H165.097V44.46H166.837V55H165.097V52.84H164.957C164.637 53.4667 164.183 54.0067 163.597 54.46C163.01 54.9133 162.257 55.14 161.337 55.14ZM161.877 53.66C162.903 53.66 163.69 53.28 164.237 52.52C164.783 51.7467 165.057 50.7933 165.057 49.66C165.057 48.5267 164.783 47.58 164.237 46.82C163.69 46.0467 162.903 45.66 161.877 45.66C160.823 45.66 160.023 46.04 159.477 46.8C158.943 47.56 158.677 48.5067 158.677 49.64C158.677 50.7867 158.943 51.7467 159.477 52.52C160.023 53.28 160.823 53.66 161.877 53.66ZM172.579 55.08C171.792 55.08 171.206 54.9533 170.819 54.7C170.432 54.4467 170.186 54.12 170.079 53.72C169.986 53.3067 169.939 52.7733 169.939 52.12L169.959 40H171.679V51.86C171.679 52.3667 171.699 52.7467 171.739 53C171.792 53.24 171.919 53.4333 172.119 53.58C172.332 53.7267 172.666 53.8 173.119 53.8C173.399 53.8 173.646 53.78 173.859 53.74V54.98C173.499 55.0467 173.072 55.08 172.579 55.08ZM178.988 45.84V51.96C178.988 52.4533 179.008 52.82 179.048 53.06C179.101 53.2867 179.228 53.4667 179.428 53.6C179.641 53.7333 179.981 53.8 180.448 53.8C180.768 53.8 181.115 53.7533 181.488 53.66V54.9C181.395 54.94 181.188 54.98 180.868 55.02C180.561 55.06 180.241 55.08 179.908 55.08C179.135 55.08 178.555 54.9733 178.168 54.76C177.795 54.5333 177.548 54.2333 177.428 53.86C177.321 53.4733 177.268 52.9667 177.268 52.34V45.84H175.308V44.46H177.268V41H178.988V44.46H181.488V45.84H178.988ZM184.156 40.06H185.876V46.36H186.036C186.303 45.7467 186.736 45.2333 187.336 44.82C187.936 44.3933 188.67 44.18 189.536 44.18C190.43 44.18 191.176 44.3933 191.776 44.82C192.376 45.2333 192.816 45.7867 193.096 46.48C193.39 47.16 193.536 47.9 193.536 48.7V55H191.816V48.92C191.816 47.88 191.543 47.0867 190.996 46.54C190.463 45.9933 189.75 45.72 188.856 45.72C188.003 45.72 187.29 46.0067 186.716 46.58C186.156 47.1533 185.876 47.9333 185.876 48.92V55H184.156V40.06ZM201.012 41H206.132C207.385 41 208.478 41.2867 209.412 41.86C210.358 42.42 211.085 43.2267 211.592 44.28C212.112 45.32 212.372 46.5533 212.372 47.98C212.372 49.4067 212.112 50.6533 211.592 51.72C211.085 52.7733 210.358 53.5867 209.412 54.16C208.465 54.72 207.365 55 206.112 55H201.012V41ZM205.872 53.4C207.285 53.4 208.418 52.94 209.272 52.02C210.125 51.0867 210.552 49.74 210.552 47.98C210.552 46.22 210.125 44.88 209.272 43.96C208.432 43.0267 207.298 42.56 205.872 42.56H202.692V53.4H205.872ZM214.882 44.46H216.602V55H214.882V44.46ZM215.722 42.5C215.402 42.5 215.136 42.3933 214.922 42.18C214.709 41.9533 214.602 41.6867 214.602 41.38C214.602 41.0733 214.709 40.8133 214.922 40.6C215.136 40.3733 215.402 40.26 215.722 40.26C216.042 40.26 216.309 40.3733 216.522 40.6C216.749 40.8133 216.862 41.0733 216.862 41.38C216.862 41.6867 216.749 41.9533 216.522 42.18C216.309 42.3933 216.042 42.5 215.722 42.5ZM223.602 55.14C222.669 55.14 221.869 54.9 221.202 54.42C220.549 53.94 220.049 53.2867 219.702 52.46C219.356 51.6333 219.182 50.7 219.182 49.66C219.182 48.62 219.356 47.6867 219.702 46.86C220.062 46.02 220.576 45.3667 221.242 44.9C221.922 44.42 222.729 44.18 223.662 44.18C224.596 44.18 225.349 44.4 225.922 44.84C226.496 45.28 226.929 45.8067 227.222 46.42H227.362V44.46H229.102V55H227.362V52.84H227.222C226.902 53.4667 226.449 54.0067 225.862 54.46C225.276 54.9133 224.522 55.14 223.602 55.14ZM224.142 53.66C225.169 53.66 225.956 53.28 226.502 52.52C227.049 51.7467 227.322 50.7933 227.322 49.66C227.322 48.5267 227.049 47.58 226.502 46.82C225.956 46.0467 225.169 45.66 224.142 45.66C223.089 45.66 222.289 46.04 221.742 46.8C221.209 47.56 220.942 48.5067 220.942 49.64C220.942 50.7867 221.209 51.7467 221.742 52.52C222.289 53.28 223.089 53.66 224.142 53.66ZM232.065 44.46H233.785V46.14H233.905C234.078 45.6733 234.385 45.28 234.825 44.96C235.278 44.6267 235.845 44.46 236.525 44.46C236.738 44.46 236.905 44.4733 237.025 44.5C237.158 44.5133 237.305 44.5467 237.465 44.6L237.405 46.28C237.191 46.2133 237.005 46.1667 236.845 46.14C236.698 46.1133 236.505 46.1 236.265 46.1C234.611 46.1 233.785 47.08 233.785 49.04V55H232.065V44.46ZM243.252 56.46C243.038 56.9667 242.832 57.38 242.632 57.7C242.445 58.0333 242.132 58.3467 241.692 58.64C241.252 58.9333 240.678 59.08 239.972 59.08C239.598 59.08 239.198 59.0267 238.772 58.92V57.64C239.092 57.6933 239.372 57.72 239.612 57.72C240.052 57.72 240.405 57.6333 240.672 57.46C240.938 57.3 241.145 57.0867 241.292 56.82C241.452 56.5533 241.638 56.1667 241.852 55.66L242.332 54.48L238.432 44.46H240.232L243.172 52.58H243.292L246.372 44.46H248.172L243.252 56.46Z" fill="black"/>
<path d="M47.315 235.084C46.531 235.084 45.855 234.9 45.287 234.532C44.719 234.156 44.283 233.64 43.979 232.984C43.683 232.328 43.535 231.584 43.535 230.752C43.535 229.92 43.683 229.176 43.979 228.52C44.283 227.864 44.719 227.352 45.287 226.984C45.855 226.608 46.531 226.42 47.315 226.42C48.259 226.42 49.039 226.688 49.655 227.224C50.271 227.752 50.683 228.468 50.891 229.372H49.871C49.703 228.756 49.395 228.268 48.947 227.908C48.499 227.54 47.959 227.356 47.327 227.356C46.455 227.356 45.787 227.664 45.323 228.28C44.859 228.888 44.627 229.708 44.627 230.74C44.627 231.78 44.859 232.608 45.323 233.224C45.787 233.832 46.455 234.136 47.327 234.136C47.927 234.136 48.443 233.976 48.875 233.656C49.307 233.328 49.615 232.892 49.799 232.348H50.819C50.595 233.18 50.179 233.844 49.571 234.34C48.971 234.836 48.219 235.084 47.315 235.084ZM52.27 228.676H53.302V229.684H53.374C53.478 229.404 53.662 229.168 53.926 228.976C54.198 228.776 54.538 228.676 54.946 228.676C55.074 228.676 55.174 228.684 55.246 228.7C55.326 228.708 55.414 228.728 55.51 228.76L55.474 229.768C55.346 229.728 55.234 229.7 55.138 229.684C55.05 229.668 54.934 229.66 54.79 229.66C53.798 229.66 53.302 230.248 53.302 231.424V235H52.27V228.676ZM59.1304 235.084C58.4824 235.084 57.9344 234.928 57.4864 234.616C57.0464 234.304 56.7184 233.896 56.5024 233.392C56.2864 232.888 56.1784 232.356 56.1784 231.796C56.1784 231.228 56.2864 230.696 56.5024 230.2C56.7184 229.696 57.0504 229.288 57.4984 228.976C57.9464 228.664 58.4944 228.508 59.1424 228.508C59.9904 228.508 60.6664 228.792 61.1704 229.36C61.6824 229.928 61.9384 230.744 61.9384 231.808V232.096H57.2104V232.18C57.2104 232.532 57.2904 232.864 57.4504 233.176C57.6104 233.488 57.8344 233.74 58.1224 233.932C58.4104 234.124 58.7424 234.22 59.1184 234.22C59.5264 234.22 59.8784 234.116 60.1744 233.908C60.4704 233.7 60.6904 233.42 60.8344 233.068H61.8544C61.6864 233.644 61.3704 234.124 60.9064 234.508C60.4504 234.892 59.8584 235.084 59.1304 235.084ZM60.9184 231.364C60.8864 230.644 60.7104 230.124 60.3904 229.804C60.0704 229.484 59.6504 229.324 59.1304 229.324C58.5624 229.324 58.1104 229.512 57.7744 229.888C57.4384 230.264 57.2584 230.756 57.2344 231.364H60.9184ZM65.7785 235.084C65.2185 235.084 64.7385 234.94 64.3385 234.652C63.9465 234.364 63.6465 233.972 63.4385 233.476C63.2305 232.98 63.1265 232.42 63.1265 231.796C63.1265 231.172 63.2305 230.612 63.4385 230.116C63.6545 229.612 63.9625 229.22 64.3625 228.94C64.7705 228.652 65.2545 228.508 65.8145 228.508C66.3745 228.508 66.8265 228.64 67.1705 228.904C67.5145 229.168 67.7745 229.484 67.9505 229.852H68.0345V228.676H69.0785V235H68.0345V233.704H67.9505C67.7585 234.08 67.4865 234.404 67.1345 234.676C66.7825 234.948 66.3305 235.084 65.7785 235.084ZM66.1025 234.196C66.7185 234.196 67.1905 233.968 67.5185 233.512C67.8465 233.048 68.0105 232.476 68.0105 231.796C68.0105 231.116 67.8465 230.548 67.5185 230.092C67.1905 229.628 66.7185 229.396 66.1025 229.396C65.4705 229.396 64.9905 229.624 64.6625 230.08C64.3425 230.536 64.1825 231.104 64.1825 231.784C64.1825 232.472 64.3425 233.048 64.6625 233.512C64.9905 233.968 65.4705 234.196 66.1025 234.196ZM72.6311 229.504V233.176C72.6311 233.472 72.6431 233.692 72.6671 233.836C72.6991 233.972 72.7751 234.08 72.8951 234.16C73.0231 234.24 73.2271 234.28 73.5071 234.28C73.6991 234.28 73.9071 234.252 74.1311 234.196V234.94C74.0751 234.964 73.9511 234.988 73.7591 235.012C73.5751 235.036 73.3831 235.048 73.1831 235.048C72.7191 235.048 72.3711 234.984 72.1391 234.856C71.9151 234.72 71.7671 234.54 71.6951 234.316C71.6311 234.084 71.5991 233.78 71.5991 233.404V229.504H70.4231V228.676H71.5991V226.6H72.6311V228.676H74.1311V229.504H72.6311ZM75.734 228.676H76.766V235H75.734V228.676ZM76.238 227.5C76.046 227.5 75.886 227.436 75.758 227.308C75.63 227.172 75.566 227.012 75.566 226.828C75.566 226.644 75.63 226.488 75.758 226.36C75.886 226.224 76.046 226.156 76.238 226.156C76.43 226.156 76.59 226.224 76.718 226.36C76.854 226.488 76.922 226.644 76.922 226.828C76.922 227.012 76.854 227.172 76.718 227.308C76.59 227.436 76.43 227.5 76.238 227.5ZM78.6852 228.676H79.7172V229.816H79.8132C79.9732 229.448 80.2332 229.14 80.5932 228.892C80.9532 228.636 81.3932 228.508 81.9132 228.508C82.4492 228.508 82.8972 228.636 83.2572 228.892C83.6172 229.14 83.8812 229.472 84.0492 229.888C84.2252 230.296 84.3132 230.74 84.3132 231.22V235H83.2812V231.352C83.2812 230.728 83.1172 230.252 82.7892 229.924C82.4692 229.596 82.0492 229.432 81.5292 229.432C80.9772 229.432 80.5372 229.612 80.2092 229.972C79.8812 230.324 79.7172 230.784 79.7172 231.352V235H78.6852V228.676ZM88.9 237.532C88.66 237.532 88.464 237.516 88.312 237.484C88.168 237.452 88.02 237.408 87.868 237.352V236.488C87.972 236.52 88.112 236.548 88.288 236.572C88.464 236.604 88.636 236.62 88.804 236.62C89.428 236.62 89.896 236.444 90.208 236.092C90.528 235.74 90.688 235.272 90.688 234.688V233.548H90.592C90.424 233.924 90.152 234.244 89.776 234.508C89.408 234.764 88.96 234.892 88.432 234.892C87.904 234.892 87.44 234.756 87.04 234.484C86.64 234.212 86.328 233.836 86.104 233.356C85.888 232.868 85.78 232.312 85.78 231.688C85.78 231.064 85.888 230.512 86.104 230.032C86.328 229.544 86.64 229.164 87.04 228.892C87.44 228.62 87.904 228.484 88.432 228.484C88.984 228.484 89.444 228.628 89.812 228.916C90.188 229.196 90.452 229.524 90.604 229.9H90.688V228.688H91.732V234.688C91.732 235.136 91.64 235.576 91.456 236.008C91.28 236.44 90.98 236.8 90.556 237.088C90.132 237.384 89.58 237.532 88.9 237.532ZM88.768 234.004C89.176 234.004 89.524 233.896 89.812 233.68C90.1 233.456 90.312 233.168 90.448 232.816C90.592 232.456 90.664 232.072 90.664 231.664C90.664 231.264 90.592 230.892 90.448 230.548C90.312 230.204 90.1 229.924 89.812 229.708C89.532 229.492 89.184 229.384 88.768 229.384C88.152 229.384 87.68 229.608 87.352 230.056C87.032 230.496 86.872 231.032 86.872 231.664C86.872 232.08 86.94 232.468 87.076 232.828C87.22 233.18 87.432 233.464 87.712 233.68C88 233.896 88.352 234.004 88.768 234.004ZM98.6144 235.084C98.0544 235.084 97.5744 234.94 97.1744 234.652C96.7824 234.364 96.4824 233.972 96.2744 233.476C96.0664 232.98 95.9624 232.42 95.9624 231.796C95.9624 231.172 96.0664 230.612 96.2744 230.116C96.4904 229.612 96.7984 229.22 97.1984 228.94C97.6064 228.652 98.0904 228.508 98.6504 228.508C99.2104 228.508 99.6624 228.64 100.006 228.904C100.35 229.168 100.61 229.484 100.786 229.852H100.87V228.676H101.914V235H100.87V233.704H100.786C100.594 234.08 100.322 234.404 99.9704 234.676C99.6184 234.948 99.1664 235.084 98.6144 235.084ZM98.9384 234.196C99.5544 234.196 100.026 233.968 100.354 233.512C100.682 233.048 100.846 232.476 100.846 231.796C100.846 231.116 100.682 230.548 100.354 230.092C100.026 229.628 99.5544 229.396 98.9384 229.396C98.3064 229.396 97.8264 229.624 97.4984 230.08C97.1784 230.536 97.0184 231.104 97.0184 231.784C97.0184 232.472 97.1784 233.048 97.4984 233.512C97.8264 233.968 98.3064 234.196 98.9384 234.196ZM109.793 235.084C109.241 235.084 108.789 234.948 108.437 234.676C108.085 234.404 107.813 234.08 107.621 233.704H107.537V237.436H106.493V228.676H107.537V229.852H107.621C107.797 229.484 108.057 229.168 108.401 228.904C108.745 228.64 109.197 228.508 109.757 228.508C110.325 228.508 110.809 228.652 111.209 228.94C111.617 229.22 111.925 229.612 112.133 230.116C112.341 230.612 112.445 231.172 112.445 231.796C112.445 232.42 112.341 232.98 112.133 233.476C111.925 233.972 111.621 234.364 111.221 234.652C110.821 234.94 110.345 235.084 109.793 235.084ZM109.469 234.196C110.093 234.196 110.565 233.968 110.885 233.512C111.213 233.056 111.377 232.484 111.377 231.796C111.377 231.116 111.217 230.548 110.897 230.092C110.577 229.636 110.101 229.408 109.469 229.408C108.845 229.408 108.369 229.636 108.041 230.092C107.721 230.548 107.561 231.116 107.561 231.796C107.561 232.476 107.725 233.048 108.053 233.512C108.381 233.968 108.853 234.196 109.469 234.196ZM113.97 226.036H115.002V229.816H115.098C115.258 229.448 115.518 229.14 115.878 228.892C116.238 228.636 116.678 228.508 117.198 228.508C117.734 228.508 118.182 228.636 118.542 228.892C118.902 229.14 119.166 229.472 119.334 229.888C119.51 230.296 119.598 230.74 119.598 231.22V235H118.566V231.352C118.566 230.728 118.402 230.252 118.074 229.924C117.754 229.596 117.326 229.432 116.79 229.432C116.278 229.432 115.85 229.604 115.506 229.948C115.17 230.292 115.002 230.76 115.002 231.352V235H113.97V226.036ZM123.599 235.876C123.471 236.18 123.347 236.428 123.227 236.62C123.115 236.82 122.927 237.008 122.663 237.184C122.399 237.36 122.055 237.448 121.631 237.448C121.407 237.448 121.167 237.416 120.911 237.352V236.584C121.103 236.616 121.271 236.632 121.415 236.632C121.679 236.632 121.891 236.58 122.051 236.476C122.211 236.38 122.335 236.252 122.423 236.092C122.519 235.932 122.631 235.7 122.759 235.396L123.047 234.688L120.707 228.676H121.787L123.551 233.548H123.623L125.471 228.676H126.551L123.599 235.876ZM129.865 235.084C129.353 235.084 128.909 234.984 128.533 234.784C128.157 234.576 127.869 234.312 127.669 233.992C127.477 233.672 127.381 233.336 127.381 232.984V232.924H128.413V232.972C128.413 233.172 128.469 233.372 128.581 233.572C128.693 233.764 128.861 233.924 129.085 234.052C129.309 234.172 129.581 234.232 129.901 234.232C130.285 234.232 130.601 234.14 130.849 233.956C131.105 233.764 131.233 233.504 131.233 233.176C131.233 232.904 131.133 232.688 130.933 232.528C130.741 232.368 130.497 232.264 130.201 232.216L129.373 232.096C128.853 232.016 128.417 231.84 128.065 231.568C127.713 231.288 127.537 230.884 127.537 230.356C127.537 229.772 127.745 229.32 128.161 229C128.585 228.672 129.125 228.508 129.781 228.508C130.269 228.508 130.685 228.6 131.029 228.784C131.381 228.96 131.649 229.196 131.833 229.492C132.017 229.78 132.109 230.096 132.109 230.44V230.488H131.077V230.464C131.077 230.304 131.033 230.136 130.945 229.96C130.865 229.784 130.725 229.632 130.525 229.504C130.325 229.376 130.069 229.312 129.757 229.312C129.373 229.312 129.065 229.408 128.833 229.6C128.601 229.784 128.485 230.028 128.485 230.332C128.485 230.58 128.577 230.784 128.761 230.944C128.945 231.104 129.177 231.208 129.457 231.256L130.357 231.4C130.885 231.488 131.329 231.672 131.689 231.952C132.049 232.224 132.229 232.628 132.229 233.164C132.229 233.548 132.125 233.884 131.917 234.172C131.717 234.46 131.437 234.684 131.077 234.844C130.717 235.004 130.313 235.084 129.865 235.084ZM133.742 228.676H134.774V235H133.742V228.676ZM134.246 227.5C134.054 227.5 133.894 227.436 133.766 227.308C133.638 227.172 133.574 227.012 133.574 226.828C133.574 226.644 133.638 226.488 133.766 226.36C133.894 226.224 134.054 226.156 134.246 226.156C134.438 226.156 134.598 226.224 134.726 226.36C134.862 226.488 134.93 226.644 134.93 226.828C134.93 227.012 134.862 227.172 134.726 227.308C134.598 227.436 134.438 227.5 134.246 227.5ZM139.358 235.084C138.702 235.084 138.146 234.928 137.69 234.616C137.242 234.304 136.91 233.9 136.694 233.404C136.478 232.9 136.37 232.364 136.37 231.796C136.37 231.228 136.478 230.696 136.694 230.2C136.91 229.696 137.242 229.288 137.69 228.976C138.146 228.664 138.702 228.508 139.358 228.508C140.174 228.508 140.814 228.744 141.278 229.216C141.75 229.688 142.034 230.268 142.13 230.956H141.122C141.05 230.492 140.866 230.116 140.57 229.828C140.274 229.532 139.874 229.384 139.37 229.384C138.73 229.384 138.242 229.616 137.906 230.08C137.578 230.536 137.414 231.108 137.414 231.796C137.414 232.484 137.578 233.06 137.906 233.524C138.242 233.98 138.73 234.208 139.37 234.208C139.874 234.208 140.274 234.064 140.57 233.776C140.866 233.488 141.05 233.108 141.122 232.636H142.13C142.034 233.324 141.75 233.904 141.278 234.376C140.814 234.848 140.174 235.084 139.358 235.084ZM145.888 235.084C145.328 235.084 144.848 234.94 144.448 234.652C144.056 234.364 143.756 233.972 143.548 233.476C143.34 232.98 143.236 232.42 143.236 231.796C143.236 231.172 143.34 230.612 143.548 230.116C143.764 229.612 144.072 229.22 144.472 228.94C144.88 228.652 145.364 228.508 145.924 228.508C146.484 228.508 146.936 228.64 147.28 228.904C147.624 229.168 147.884 229.484 148.06 229.852H148.144V228.676H149.188V235H148.144V233.704H148.06C147.868 234.08 147.596 234.404 147.244 234.676C146.892 234.948 146.44 235.084 145.888 235.084ZM146.212 234.196C146.828 234.196 147.3 233.968 147.628 233.512C147.956 233.048 148.12 232.476 148.12 231.796C148.12 231.116 147.956 230.548 147.628 230.092C147.3 229.628 146.828 229.396 146.212 229.396C145.58 229.396 145.1 229.624 144.772 230.08C144.452 230.536 144.292 231.104 144.292 231.784C144.292 232.472 144.452 233.048 144.772 233.512C145.1 233.968 145.58 234.196 146.212 234.196ZM152.633 235.048C152.161 235.048 151.809 234.972 151.577 234.82C151.345 234.668 151.197 234.472 151.133 234.232C151.077 233.984 151.049 233.664 151.049 233.272L151.061 226H152.093V233.116C152.093 233.42 152.105 233.648 152.129 233.8C152.161 233.944 152.237 234.06 152.357 234.148C152.485 234.236 152.685 234.28 152.957 234.28C153.125 234.28 153.273 234.268 153.401 234.244V234.988C153.185 235.028 152.929 235.048 152.633 235.048ZM157.552 228.676H158.572V229.84H158.668C158.684 229.76 158.764 229.616 158.908 229.408C159.052 229.192 159.272 228.988 159.568 228.796C159.864 228.604 160.232 228.508 160.672 228.508C161.136 228.508 161.52 228.616 161.824 228.832C162.136 229.048 162.368 229.28 162.52 229.528C162.672 229.776 162.748 229.932 162.748 229.996H162.844C162.956 229.716 163.176 229.4 163.504 229.048C163.84 228.688 164.352 228.508 165.04 228.508C165.552 228.508 165.98 228.64 166.324 228.904C166.668 229.16 166.92 229.492 167.08 229.9C167.248 230.308 167.332 230.744 167.332 231.208V235H166.312V231.304C166.312 230.696 166.152 230.236 165.832 229.924C165.52 229.612 165.132 229.456 164.668 229.456C164.188 229.456 163.78 229.62 163.444 229.948C163.116 230.268 162.952 230.72 162.952 231.304V235H161.932V231.304C161.932 230.696 161.772 230.236 161.452 229.924C161.14 229.612 160.752 229.456 160.288 229.456C159.808 229.456 159.4 229.62 159.064 229.948C158.736 230.268 158.572 230.72 158.572 231.304V235H157.552V228.676ZM171.748 235.084C171.1 235.084 170.552 234.928 170.104 234.616C169.664 234.304 169.336 233.896 169.12 233.392C168.904 232.888 168.796 232.356 168.796 231.796C168.796 231.228 168.904 230.696 169.12 230.2C169.336 229.696 169.668 229.288 170.116 228.976C170.564 228.664 171.112 228.508 171.76 228.508C172.608 228.508 173.284 228.792 173.788 229.36C174.3 229.928 174.556 230.744 174.556 231.808V232.096H169.828V232.18C169.828 232.532 169.908 232.864 170.068 233.176C170.228 233.488 170.452 233.74 170.74 233.932C171.028 234.124 171.36 234.22 171.736 234.22C172.144 234.22 172.496 234.116 172.792 233.908C173.088 233.7 173.308 233.42 173.452 233.068H174.472C174.304 233.644 173.988 234.124 173.524 234.508C173.068 234.892 172.476 235.084 171.748 235.084ZM173.536 231.364C173.504 230.644 173.328 230.124 173.008 229.804C172.688 229.484 172.268 229.324 171.748 229.324C171.18 229.324 170.728 229.512 170.392 229.888C170.056 230.264 169.876 230.756 169.852 231.364H173.536ZM176.08 228.676H177.112V229.816H177.208C177.368 229.448 177.628 229.14 177.988 228.892C178.348 228.636 178.788 228.508 179.308 228.508C179.844 228.508 180.292 228.636 180.652 228.892C181.012 229.14 181.276 229.472 181.444 229.888C181.62 230.296 181.708 230.74 181.708 231.22V235H180.676V231.352C180.676 230.728 180.512 230.252 180.184 229.924C179.864 229.596 179.444 229.432 178.924 229.432C178.372 229.432 177.932 229.612 177.604 229.972C177.276 230.324 177.112 230.784 177.112 231.352V235H176.08V228.676ZM184.885 229.504V233.176C184.885 233.472 184.897 233.692 184.921 233.836C184.953 233.972 185.029 234.08 185.149 234.16C185.277 234.24 185.481 234.28 185.761 234.28C185.953 234.28 186.161 234.252 186.385 234.196V234.94C186.329 234.964 186.205 234.988 186.013 235.012C185.829 235.036 185.637 235.048 185.437 235.048C184.973 235.048 184.625 234.984 184.393 234.856C184.169 234.72 184.021 234.54 183.949 234.316C183.885 234.084 183.853 233.78 183.853 233.404V229.504H182.677V228.676H183.853V226.6H184.885V228.676H186.385V229.504H184.885ZM190.22 235.084C189.66 235.084 189.18 234.94 188.78 234.652C188.388 234.364 188.088 233.972 187.88 233.476C187.672 232.98 187.568 232.42 187.568 231.796C187.568 231.172 187.672 230.612 187.88 230.116C188.096 229.612 188.404 229.22 188.804 228.94C189.212 228.652 189.696 228.508 190.256 228.508C190.816 228.508 191.268 228.64 191.612 228.904C191.956 229.168 192.216 229.484 192.392 229.852H192.476V228.676H193.52V235H192.476V233.704H192.392C192.2 234.08 191.928 234.404 191.576 234.676C191.224 234.948 190.772 235.084 190.22 235.084ZM190.544 234.196C191.16 234.196 191.632 233.968 191.96 233.512C192.288 233.048 192.452 232.476 192.452 231.796C192.452 231.116 192.288 230.548 191.96 230.092C191.632 229.628 191.16 229.396 190.544 229.396C189.912 229.396 189.432 229.624 189.104 230.08C188.784 230.536 188.624 231.104 188.624 231.784C188.624 232.472 188.784 233.048 189.104 233.512C189.432 233.968 189.912 234.196 190.544 234.196ZM196.965 235.048C196.493 235.048 196.141 234.972 195.909 234.82C195.677 234.668 195.529 234.472 195.465 234.232C195.409 233.984 195.381 233.664 195.381 233.272L195.393 226H196.425V233.116C196.425 233.42 196.437 233.648 196.461 233.8C196.493 233.944 196.569 234.06 196.689 234.148C196.817 234.236 197.017 234.28 197.289 234.28C197.457 234.28 197.605 234.268 197.733 234.244V234.988C197.517 235.028 197.261 235.048 196.965 235.048ZM201.884 226.036H202.916V229.816H203.012C203.172 229.448 203.432 229.14 203.792 228.892C204.152 228.636 204.592 228.508 205.112 228.508C205.648 228.508 206.096 228.636 206.456 228.892C206.816 229.14 207.08 229.472 207.248 229.888C207.424 230.296 207.512 230.74 207.512 231.22V235H206.48V231.352C206.48 230.728 206.316 230.252 205.988 229.924C205.668 229.596 205.24 229.432 204.704 229.432C204.192 229.432 203.764 229.604 203.42 229.948C203.084 230.292 202.916 230.76 202.916 231.352V235H201.884V226.036ZM211.931 235.084C211.283 235.084 210.735 234.928 210.287 234.616C209.847 234.304 209.519 233.896 209.303 233.392C209.087 232.888 208.979 232.356 208.979 231.796C208.979 231.228 209.087 230.696 209.303 230.2C209.519 229.696 209.851 229.288 210.299 228.976C210.747 228.664 211.295 228.508 211.943 228.508C212.791 228.508 213.467 228.792 213.971 229.36C214.483 229.928 214.739 230.744 214.739 231.808V232.096H210.011V232.18C210.011 232.532 210.091 232.864 210.251 233.176C210.411 233.488 210.635 233.74 210.923 233.932C211.211 234.124 211.543 234.22 211.919 234.22C212.327 234.22 212.679 234.116 212.975 233.908C213.271 233.7 213.491 233.42 213.635 233.068H214.655C214.487 233.644 214.171 234.124 213.707 234.508C213.251 234.892 212.659 235.084 211.931 235.084ZM213.719 231.364C213.687 230.644 213.511 230.124 213.191 229.804C212.871 229.484 212.451 229.324 211.931 229.324C211.363 229.324 210.911 229.512 210.575 229.888C210.239 230.264 210.059 230.756 210.035 231.364H213.719ZM218.579 235.084C218.019 235.084 217.539 234.94 217.139 234.652C216.747 234.364 216.447 233.972 216.239 233.476C216.031 232.98 215.927 232.42 215.927 231.796C215.927 231.172 216.031 230.612 216.239 230.116C216.455 229.612 216.763 229.22 217.163 228.94C217.571 228.652 218.055 228.508 218.615 228.508C219.175 228.508 219.627 228.64 219.971 228.904C220.315 229.168 220.575 229.484 220.751 229.852H220.835V228.676H221.879V235H220.835V233.704H220.751C220.559 234.08 220.287 234.404 219.935 234.676C219.583 234.948 219.131 235.084 218.579 235.084ZM218.903 234.196C219.519 234.196 219.991 233.968 220.319 233.512C220.647 233.048 220.811 232.476 220.811 231.796C220.811 231.116 220.647 230.548 220.319 230.092C219.991 229.628 219.519 229.396 218.903 229.396C218.271 229.396 217.791 229.624 217.463 230.08C217.143 230.536 216.983 231.104 216.983 231.784C216.983 232.472 217.143 233.048 217.463 233.512C217.791 233.968 218.271 234.196 218.903 234.196ZM225.325 235.048C224.853 235.048 224.501 234.972 224.269 234.82C224.037 234.668 223.889 234.472 223.825 234.232C223.769 233.984 223.741 233.664 223.741 233.272L223.753 226H224.785V233.116C224.785 233.42 224.797 233.648 224.821 233.8C224.853 233.944 224.929 234.06 225.049 234.148C225.177 234.236 225.377 234.28 225.649 234.28C225.817 234.28 225.965 234.268 226.093 234.244V234.988C225.877 235.028 225.621 235.048 225.325 235.048ZM229.17 229.504V233.176C229.17 233.472 229.182 233.692 229.206 233.836C229.238 233.972 229.314 234.08 229.434 234.16C229.562 234.24 229.766 234.28 230.046 234.28C230.238 234.28 230.446 234.252 230.67 234.196V234.94C230.614 234.964 230.49 234.988 230.298 235.012C230.114 235.036 229.922 235.048 229.722 235.048C229.258 235.048 228.91 234.984 228.678 234.856C228.454 234.72 228.306 234.54 228.234 234.316C228.17 234.084 228.138 233.78 228.138 233.404V229.504H226.962V228.676H228.138V226.6H229.17V228.676H230.67V229.504H229.17ZM232.271 226.036H233.303V229.816H233.399C233.559 229.448 233.819 229.14 234.179 228.892C234.539 228.636 234.979 228.508 235.499 228.508C236.035 228.508 236.483 228.636 236.843 228.892C237.203 229.14 237.467 229.472 237.635 229.888C237.811 230.296 237.899 230.74 237.899 231.22V235H236.867V231.352C236.867 230.728 236.703 230.252 236.375 229.924C236.055 229.596 235.627 229.432 235.091 229.432C234.579 229.432 234.151 229.604 233.807 229.948C233.471 230.292 233.303 230.76 233.303 231.352V235H232.271V226.036ZM244.724 235.084C244.164 235.084 243.684 234.94 243.284 234.652C242.892 234.364 242.592 233.972 242.384 233.476C242.176 232.98 242.072 232.42 242.072 231.796C242.072 231.164 242.176 230.6 242.384 230.104C242.592 229.608 242.896 229.22 243.296 228.94C243.696 228.652 244.18 228.508 244.748 228.508C245.308 228.508 245.76 228.644 246.104 228.916C246.456 229.18 246.716 229.492 246.884 229.852H246.98V226H248.012V235H246.98V233.704H246.884C246.692 234.088 246.42 234.416 246.068 234.688C245.724 234.952 245.276 235.084 244.724 235.084ZM245.036 234.196C245.66 234.196 246.136 233.968 246.464 233.512C246.792 233.048 246.956 232.476 246.956 231.796C246.956 231.116 246.792 230.548 246.464 230.092C246.136 229.636 245.66 229.408 245.036 229.408C244.404 229.408 243.928 229.636 243.608 230.092C243.288 230.548 243.128 231.116 243.128 231.796C243.128 232.484 243.288 233.056 243.608 233.512C243.936 233.968 244.412 234.196 245.036 234.196ZM249.898 228.676H250.93V235H249.898V228.676ZM250.402 227.5C250.21 227.5 250.05 227.436 249.922 227.308C249.794 227.172 249.73 227.012 249.73 226.828C249.73 226.644 249.794 226.488 249.922 226.36C250.05 226.224 250.21 226.156 250.402 226.156C250.594 226.156 250.754 226.224 250.882 226.36C251.018 226.488 251.086 226.644 251.086 226.828C251.086 227.012 251.018 227.172 250.882 227.308C250.754 227.436 250.594 227.5 250.402 227.5ZM255.13 235.084C254.57 235.084 254.09 234.94 253.69 234.652C253.298 234.364 252.998 233.972 252.79 233.476C252.582 232.98 252.478 232.42 252.478 231.796C252.478 231.172 252.582 230.612 252.79 230.116C253.006 229.612 253.314 229.22 253.714 228.94C254.122 228.652 254.606 228.508 255.166 228.508C255.726 228.508 256.178 228.64 256.522 228.904C256.866 229.168 257.126 229.484 257.302 229.852H257.386V228.676H258.43V235H257.386V233.704H257.302C257.11 234.08 256.838 234.404 256.486 234.676C256.134 234.948 255.682 235.084 255.13 235.084ZM255.454 234.196C256.07 234.196 256.542 233.968 256.87 233.512C257.198 233.048 257.362 232.476 257.362 231.796C257.362 231.116 257.198 230.548 256.87 230.092C256.542 229.628 256.07 229.396 255.454 229.396C254.822 229.396 254.342 229.624 254.014 230.08C253.694 230.536 253.534 231.104 253.534 231.784C253.534 232.472 253.694 233.048 254.014 233.512C254.342 233.968 254.822 234.196 255.454 234.196ZM260.207 228.676H261.239V229.684H261.311C261.415 229.404 261.599 229.168 261.863 228.976C262.135 228.776 262.475 228.676 262.883 228.676C263.011 228.676 263.111 228.684 263.183 228.7C263.263 228.708 263.351 228.728 263.447 228.76L263.411 229.768C263.283 229.728 263.171 229.7 263.075 229.684C262.987 229.668 262.871 229.66 262.727 229.66C261.735 229.66 261.239 230.248 261.239 231.424V235H260.207V228.676ZM266.92 235.876C266.792 236.18 266.668 236.428 266.548 236.62C266.436 236.82 266.248 237.008 265.984 237.184C265.72 237.36 265.376 237.448 264.952 237.448C264.728 237.448 264.488 237.416 264.232 237.352V236.584C264.424 236.616 264.592 236.632 264.736 236.632C265 236.632 265.212 236.58 265.372 236.476C265.532 236.38 265.656 236.252 265.744 236.092C265.84 235.932 265.952 235.7 266.08 235.396L266.368 234.688L264.028 228.676H265.108L266.872 233.548H266.944L268.792 228.676H269.872L266.92 235.876ZM47.5354 247.504V251.176C47.5354 251.472 47.5474 251.692 47.5714 251.836C47.6034 251.972 47.6794 252.08 47.7994 252.16C47.9274 252.24 48.1314 252.28 48.4114 252.28C48.6034 252.28 48.8114 252.252 49.0354 252.196V252.94C48.9794 252.964 48.8554 252.988 48.6634 253.012C48.4794 253.036 48.2874 253.048 48.0874 253.048C47.6234 253.048 47.2754 252.984 47.0434 252.856C46.8194 252.72 46.6714 252.54 46.5994 252.316C46.5354 252.084 46.5034 251.78 46.5034 251.404V247.504H45.3274V246.676H46.5034V244.6H47.5354V246.676H49.0354V247.504H47.5354ZM53.2303 253.084C52.5903 253.084 52.0463 252.932 51.5983 252.628C51.1583 252.316 50.8263 251.912 50.6023 251.416C50.3783 250.912 50.2663 250.372 50.2663 249.796C50.2663 249.22 50.3783 248.684 50.6023 248.188C50.8263 247.684 51.1583 247.28 51.5983 246.976C52.0463 246.664 52.5903 246.508 53.2303 246.508C53.8703 246.508 54.4103 246.664 54.8503 246.976C55.2983 247.28 55.6303 247.684 55.8463 248.188C56.0703 248.692 56.1823 249.228 56.1823 249.796C56.1823 250.364 56.0703 250.9 55.8463 251.404C55.6223 251.908 55.2863 252.316 54.8383 252.628C54.3983 252.932 53.8623 253.084 53.2303 253.084ZM53.2303 252.196C53.6223 252.196 53.9623 252.088 54.2503 251.872C54.5463 251.656 54.7703 251.368 54.9223 251.008C55.0743 250.64 55.1503 250.232 55.1503 249.784C55.1503 249.096 54.9783 248.524 54.6343 248.068C54.2903 247.612 53.8223 247.384 53.2303 247.384C52.8303 247.384 52.4823 247.492 52.1863 247.708C51.8983 247.924 51.6783 248.216 51.5263 248.584C51.3743 248.944 51.2983 249.344 51.2983 249.784C51.2983 250.472 51.4703 251.048 51.8143 251.512C52.1583 251.968 52.6303 252.196 53.2303 252.196ZM63.7446 253.084C63.1926 253.084 62.7406 252.948 62.3886 252.676C62.0366 252.404 61.7646 252.08 61.5726 251.704H61.4886V253H60.4446V244H61.4886V247.852H61.5726C61.7486 247.484 62.0086 247.168 62.3526 246.904C62.6966 246.64 63.1486 246.508 63.7086 246.508C64.2766 246.508 64.7606 246.652 65.1606 246.94C65.5686 247.22 65.8766 247.612 66.0846 248.116C66.2926 248.612 66.3966 249.172 66.3966 249.796C66.3966 250.42 66.2926 250.98 66.0846 251.476C65.8766 251.972 65.5726 252.364 65.1726 252.652C64.7726 252.94 64.2966 253.084 63.7446 253.084ZM63.4206 252.196C64.0446 252.196 64.5166 251.968 64.8366 251.512C65.1646 251.056 65.3286 250.484 65.3286 249.796C65.3286 249.116 65.1686 248.548 64.8486 248.092C64.5286 247.636 64.0526 247.408 63.4206 247.408C62.7966 247.408 62.3206 247.636 61.9926 248.092C61.6726 248.548 61.5126 249.116 61.5126 249.796C61.5126 250.476 61.6766 251.048 62.0046 251.512C62.3326 251.968 62.8046 252.196 63.4206 252.196ZM70.1906 253.084C69.6306 253.084 69.1506 252.94 68.7506 252.652C68.3586 252.364 68.0586 251.972 67.8506 251.476C67.6426 250.98 67.5386 250.42 67.5386 249.796C67.5386 249.172 67.6426 248.612 67.8506 248.116C68.0666 247.612 68.3746 247.22 68.7746 246.94C69.1826 246.652 69.6666 246.508 70.2266 246.508C70.7866 246.508 71.2386 246.64 71.5826 246.904C71.9266 247.168 72.1866 247.484 72.3626 247.852H72.4466V246.676H73.4906V253H72.4466V251.704H72.3626C72.1706 252.08 71.8986 252.404 71.5466 252.676C71.1946 252.948 70.7426 253.084 70.1906 253.084ZM70.5146 252.196C71.1306 252.196 71.6026 251.968 71.9306 251.512C72.2586 251.048 72.4226 250.476 72.4226 249.796C72.4226 249.116 72.2586 248.548 71.9306 248.092C71.6026 247.628 71.1306 247.396 70.5146 247.396C69.8826 247.396 69.4026 247.624 69.0746 248.08C68.7546 248.536 68.5946 249.104 68.5946 249.784C68.5946 250.472 68.7546 251.048 69.0746 251.512C69.4026 251.968 69.8826 252.196 70.5146 252.196ZM81.7592 247.504V251.116C81.7592 251.42 81.7712 251.648 81.7952 251.8C81.8272 251.944 81.9032 252.06 82.0232 252.148C82.1512 252.236 82.3512 252.28 82.6232 252.28C82.8072 252.28 83.0192 252.252 83.2592 252.196V252.94C83.1952 252.964 83.0672 252.988 82.8752 253.012C82.6912 253.036 82.4992 253.048 82.2992 253.048C81.8272 253.048 81.4752 252.972 81.2432 252.82C81.0112 252.668 80.8632 252.472 80.7992 252.232C80.7432 251.984 80.7152 251.664 80.7152 251.272L80.7272 247.504H77.0432V251.116C77.0432 251.42 77.0552 251.648 77.0792 251.8C77.1112 251.944 77.1872 252.06 77.3072 252.148C77.4352 252.236 77.6392 252.28 77.9192 252.28C78.1112 252.28 78.3192 252.252 78.5432 252.196V252.94C78.4872 252.964 78.3632 252.988 78.1712 253.012C77.9872 253.036 77.7952 253.048 77.5952 253.048C77.1232 253.048 76.7712 252.972 76.5392 252.82C76.3072 252.668 76.1592 252.472 76.0952 252.232C76.0392 251.984 76.0112 251.664 76.0112 251.272V247.504H74.8352V246.676H76.0112V244.6H77.0432V246.676H80.7272V244.6H81.7592V246.676H83.2592V247.504H81.7592ZM86.393 253.048C85.921 253.048 85.569 252.972 85.337 252.82C85.105 252.668 84.957 252.472 84.893 252.232C84.837 251.984 84.809 251.664 84.809 251.272L84.821 244H85.853V251.116C85.853 251.42 85.865 251.648 85.889 251.8C85.921 251.944 85.997 252.06 86.117 252.148C86.245 252.236 86.445 252.28 86.717 252.28C86.885 252.28 87.033 252.268 87.161 252.244V252.988C86.945 253.028 86.689 253.048 86.393 253.048ZM91.2105 253.084C90.5625 253.084 90.0145 252.928 89.5665 252.616C89.1265 252.304 88.7985 251.896 88.5825 251.392C88.3665 250.888 88.2585 250.356 88.2585 249.796C88.2585 249.228 88.3665 248.696 88.5825 248.2C88.7985 247.696 89.1305 247.288 89.5785 246.976C90.0265 246.664 90.5745 246.508 91.2225 246.508C92.0705 246.508 92.7465 246.792 93.2505 247.36C93.7625 247.928 94.0185 248.744 94.0185 249.808V250.096H89.2905V250.18C89.2905 250.532 89.3705 250.864 89.5305 251.176C89.6905 251.488 89.9145 251.74 90.2025 251.932C90.4905 252.124 90.8225 252.22 91.1985 252.22C91.6065 252.22 91.9585 252.116 92.2545 251.908C92.5505 251.7 92.7705 251.42 92.9145 251.068H93.9345C93.7665 251.644 93.4505 252.124 92.9865 252.508C92.5305 252.892 91.9385 253.084 91.2105 253.084ZM92.9985 249.364C92.9665 248.644 92.7905 248.124 92.4705 247.804C92.1505 247.484 91.7305 247.324 91.2105 247.324C90.6425 247.324 90.1905 247.512 89.8545 247.888C89.5185 248.264 89.3385 248.756 89.3145 249.364H92.9985ZM100.624 253.084C100.064 253.084 99.5842 252.94 99.1842 252.652C98.7922 252.364 98.4922 251.972 98.2842 251.476C98.0762 250.98 97.9722 250.42 97.9722 249.796C97.9722 249.172 98.0762 248.612 98.2842 248.116C98.5002 247.612 98.8082 247.22 99.2082 246.94C99.6162 246.652 100.1 246.508 100.66 246.508C101.22 246.508 101.672 246.64 102.016 246.904C102.36 247.168 102.62 247.484 102.796 247.852H102.88V246.676H103.924V253H102.88V251.704H102.796C102.604 252.08 102.332 252.404 101.98 252.676C101.628 252.948 101.176 253.084 100.624 253.084ZM100.948 252.196C101.564 252.196 102.036 251.968 102.364 251.512C102.692 251.048 102.856 250.476 102.856 249.796C102.856 249.116 102.692 248.548 102.364 248.092C102.036 247.628 101.564 247.396 100.948 247.396C100.316 247.396 99.8362 247.624 99.5082 248.08C99.1882 248.536 99.0282 249.104 99.0282 249.784C99.0282 250.472 99.1882 251.048 99.5082 251.512C99.8362 251.968 100.316 252.196 100.948 252.196ZM111.347 255.532C111.107 255.532 110.911 255.516 110.759 255.484C110.615 255.452 110.467 255.408 110.315 255.352V254.488C110.419 254.52 110.559 254.548 110.735 254.572C110.911 254.604 111.083 254.62 111.251 254.62C111.875 254.62 112.343 254.444 112.655 254.092C112.975 253.74 113.135 253.272 113.135 252.688V251.548H113.039C112.871 251.924 112.599 252.244 112.223 252.508C111.855 252.764 111.407 252.892 110.879 252.892C110.351 252.892 109.887 252.756 109.487 252.484C109.087 252.212 108.775 251.836 108.551 251.356C108.335 250.868 108.227 250.312 108.227 249.688C108.227 249.064 108.335 248.512 108.551 248.032C108.775 247.544 109.087 247.164 109.487 246.892C109.887 246.62 110.351 246.484 110.879 246.484C111.431 246.484 111.891 246.628 112.259 246.916C112.635 247.196 112.899 247.524 113.051 247.9H113.135V246.688H114.179V252.688C114.179 253.136 114.087 253.576 113.903 254.008C113.727 254.44 113.427 254.8 113.003 255.088C112.579 255.384 112.027 255.532 111.347 255.532ZM111.215 252.004C111.623 252.004 111.971 251.896 112.259 251.68C112.547 251.456 112.759 251.168 112.895 250.816C113.039 250.456 113.111 250.072 113.111 249.664C113.111 249.264 113.039 248.892 112.895 248.548C112.759 248.204 112.547 247.924 112.259 247.708C111.979 247.492 111.631 247.384 111.215 247.384C110.599 247.384 110.127 247.608 109.799 248.056C109.479 248.496 109.319 249.032 109.319 249.664C109.319 250.08 109.387 250.468 109.523 250.828C109.667 251.18 109.879 251.464 110.159 251.68C110.447 251.896 110.799 252.004 111.215 252.004ZM115.932 246.676H116.964V247.684H117.036C117.14 247.404 117.324 247.168 117.588 246.976C117.86 246.776 118.2 246.676 118.608 246.676C118.736 246.676 118.836 246.684 118.908 246.7C118.988 246.708 119.076 246.728 119.172 246.76L119.136 247.768C119.008 247.728 118.896 247.7 118.8 247.684C118.712 247.668 118.596 247.66 118.452 247.66C117.46 247.66 116.964 248.248 116.964 249.424V253H115.932V246.676ZM122.805 253.084C122.165 253.084 121.621 252.932 121.173 252.628C120.733 252.316 120.401 251.912 120.177 251.416C119.953 250.912 119.841 250.372 119.841 249.796C119.841 249.22 119.953 248.684 120.177 248.188C120.401 247.684 120.733 247.28 121.173 246.976C121.621 246.664 122.165 246.508 122.805 246.508C123.445 246.508 123.985 246.664 124.425 246.976C124.873 247.28 125.205 247.684 125.421 248.188C125.645 248.692 125.757 249.228 125.757 249.796C125.757 250.364 125.645 250.9 125.421 251.404C125.197 251.908 124.861 252.316 124.413 252.628C123.973 252.932 123.437 253.084 122.805 253.084ZM122.805 252.196C123.197 252.196 123.537 252.088 123.825 251.872C124.121 251.656 124.345 251.368 124.497 251.008C124.649 250.64 124.725 250.232 124.725 249.784C124.725 249.096 124.553 248.524 124.209 248.068C123.865 247.612 123.397 247.384 122.805 247.384C122.405 247.384 122.057 247.492 121.761 247.708C121.473 247.924 121.253 248.216 121.101 248.584C120.949 248.944 120.873 249.344 120.873 249.784C120.873 250.472 121.045 251.048 121.389 251.512C121.733 251.968 122.205 252.196 122.805 252.196ZM126.726 246.676H127.71L129.114 251.872H129.174L130.77 246.676H131.706L133.326 251.872H133.386L134.766 246.676H135.75L134.01 253H132.69L131.286 248.38H131.202L129.798 253H128.478L126.726 246.676ZM137.123 246.676H138.155V253H137.123V246.676ZM137.627 245.5C137.435 245.5 137.275 245.436 137.147 245.308C137.019 245.172 136.955 245.012 136.955 244.828C136.955 244.644 137.019 244.488 137.147 244.36C137.275 244.224 137.435 244.156 137.627 244.156C137.819 244.156 137.979 244.224 138.107 244.36C138.243 244.488 138.311 244.644 138.311 244.828C138.311 245.012 138.243 245.172 138.107 245.308C137.979 245.436 137.819 245.5 137.627 245.5ZM140.074 246.676H141.106V247.816H141.202C141.362 247.448 141.622 247.14 141.982 246.892C142.342 246.636 142.782 246.508 143.302 246.508C143.838 246.508 144.286 246.636 144.646 246.892C145.006 247.14 145.27 247.472 145.438 247.888C145.614 248.296 145.702 248.74 145.702 249.22V253H144.67V249.352C144.67 248.728 144.506 248.252 144.178 247.924C143.858 247.596 143.438 247.432 142.918 247.432C142.366 247.432 141.926 247.612 141.598 247.972C141.27 248.324 141.106 248.784 141.106 249.352V253H140.074V246.676ZM150.289 255.532C150.049 255.532 149.853 255.516 149.701 255.484C149.557 255.452 149.409 255.408 149.257 255.352V254.488C149.361 254.52 149.501 254.548 149.677 254.572C149.853 254.604 150.025 254.62 150.193 254.62C150.817 254.62 151.285 254.444 151.597 254.092C151.917 253.74 152.077 253.272 152.077 252.688V251.548H151.981C151.813 251.924 151.541 252.244 151.165 252.508C150.797 252.764 150.349 252.892 149.821 252.892C149.293 252.892 148.829 252.756 148.429 252.484C148.029 252.212 147.717 251.836 147.493 251.356C147.277 250.868 147.169 250.312 147.169 249.688C147.169 249.064 147.277 248.512 147.493 248.032C147.717 247.544 148.029 247.164 148.429 246.892C148.829 246.62 149.293 246.484 149.821 246.484C150.373 246.484 150.833 246.628 151.201 246.916C151.577 247.196 151.841 247.524 151.993 247.9H152.077V246.688H153.121V252.688C153.121 253.136 153.029 253.576 152.845 254.008C152.669 254.44 152.369 254.8 151.945 255.088C151.521 255.384 150.969 255.532 150.289 255.532ZM150.157 252.004C150.565 252.004 150.913 251.896 151.201 251.68C151.489 251.456 151.701 251.168 151.837 250.816C151.981 250.456 152.053 250.072 152.053 249.664C152.053 249.264 151.981 248.892 151.837 248.548C151.701 248.204 151.489 247.924 151.201 247.708C150.921 247.492 150.573 247.384 150.157 247.384C149.541 247.384 149.069 247.608 148.741 248.056C148.421 248.496 148.261 249.032 148.261 249.664C148.261 250.08 148.329 250.468 148.465 250.828C148.609 251.18 148.821 251.464 149.101 251.68C149.389 251.896 149.741 252.004 150.157 252.004ZM157.687 246.676H158.719V247.816H158.815C158.975 247.448 159.235 247.14 159.595 246.892C159.955 246.636 160.395 246.508 160.915 246.508C161.451 246.508 161.899 246.636 162.259 246.892C162.619 247.14 162.883 247.472 163.051 247.888C163.227 248.296 163.315 248.74 163.315 249.22V253H162.283V249.352C162.283 248.728 162.119 248.252 161.791 247.924C161.471 247.596 161.051 247.432 160.531 247.432C159.979 247.432 159.539 247.612 159.211 247.972C158.883 248.324 158.719 248.784 158.719 249.352V253H157.687V246.676ZM167.734 253.084C167.086 253.084 166.538 252.928 166.09 252.616C165.65 252.304 165.322 251.896 165.106 251.392C164.89 250.888 164.782 250.356 164.782 249.796C164.782 249.228 164.89 248.696 165.106 248.2C165.322 247.696 165.654 247.288 166.102 246.976C166.55 246.664 167.098 246.508 167.746 246.508C168.594 246.508 169.27 246.792 169.774 247.36C170.286 247.928 170.542 248.744 170.542 249.808V250.096H165.814V250.18C165.814 250.532 165.894 250.864 166.054 251.176C166.214 251.488 166.438 251.74 166.726 251.932C167.014 252.124 167.346 252.22 167.722 252.22C168.13 252.22 168.482 252.116 168.778 251.908C169.074 251.7 169.294 251.42 169.438 251.068H170.458C170.29 251.644 169.974 252.124 169.51 252.508C169.054 252.892 168.462 253.084 167.734 253.084ZM169.522 249.364C169.49 248.644 169.314 248.124 168.994 247.804C168.674 247.484 168.254 247.324 167.734 247.324C167.166 247.324 166.714 247.512 166.378 247.888C166.042 248.264 165.862 248.756 165.838 249.364H169.522ZM174.73 253.084C174.082 253.084 173.534 252.928 173.086 252.616C172.646 252.304 172.318 251.896 172.102 251.392C171.886 250.888 171.778 250.356 171.778 249.796C171.778 249.228 171.886 248.696 172.102 248.2C172.318 247.696 172.65 247.288 173.098 246.976C173.546 246.664 174.094 246.508 174.742 246.508C175.59 246.508 176.266 246.792 176.77 247.36C177.282 247.928 177.538 248.744 177.538 249.808V250.096H172.81V250.18C172.81 250.532 172.89 250.864 173.05 251.176C173.21 251.488 173.434 251.74 173.722 251.932C174.01 252.124 174.342 252.22 174.718 252.22C175.126 252.22 175.478 252.116 175.774 251.908C176.07 251.7 176.29 251.42 176.434 251.068H177.454C177.286 251.644 176.97 252.124 176.506 252.508C176.05 252.892 175.458 253.084 174.73 253.084ZM176.518 249.364C176.486 248.644 176.31 248.124 175.99 247.804C175.67 247.484 175.25 247.324 174.73 247.324C174.162 247.324 173.71 247.512 173.374 247.888C173.038 248.264 172.858 248.756 172.834 249.364H176.518ZM181.402 253.084C180.842 253.084 180.362 252.94 179.962 252.652C179.57 252.364 179.27 251.972 179.062 251.476C178.854 250.98 178.75 250.42 178.75 249.796C178.75 249.164 178.854 248.6 179.062 248.104C179.27 247.608 179.574 247.22 179.974 246.94C180.374 246.652 180.858 246.508 181.426 246.508C181.986 246.508 182.438 246.644 182.782 246.916C183.134 247.18 183.394 247.492 183.562 247.852H183.658V244H184.69V253H183.658V251.704H183.562C183.37 252.088 183.098 252.416 182.746 252.688C182.402 252.952 181.954 253.084 181.402 253.084ZM181.714 252.196C182.338 252.196 182.814 251.968 183.142 251.512C183.47 251.048 183.634 250.476 183.634 249.796C183.634 249.116 183.47 248.548 183.142 248.092C182.814 247.636 182.338 247.408 181.714 247.408C181.082 247.408 180.606 247.636 180.286 248.092C179.966 248.548 179.806 249.116 179.806 249.796C179.806 250.484 179.966 251.056 180.286 251.512C180.614 251.968 181.09 252.196 181.714 252.196ZM191.729 244.9C191.449 244.9 191.241 244.956 191.105 245.068C190.977 245.172 190.897 245.3 190.865 245.452C190.841 245.596 190.829 245.784 190.829 246.016V246.676H192.329V247.504H190.829V253H189.797L189.785 247.504H188.921V246.676H189.785V245.848C189.785 244.712 190.349 244.144 191.477 244.144C191.637 244.144 191.797 244.156 191.957 244.18C192.125 244.196 192.249 244.216 192.329 244.24V244.96C192.153 244.92 191.953 244.9 191.729 244.9ZM195.894 253.084C195.254 253.084 194.71 252.932 194.262 252.628C193.822 252.316 193.49 251.912 193.266 251.416C193.042 250.912 192.93 250.372 192.93 249.796C192.93 249.22 193.042 248.684 193.266 248.188C193.49 247.684 193.822 247.28 194.262 246.976C194.71 246.664 195.254 246.508 195.894 246.508C196.534 246.508 197.074 246.664 197.514 246.976C197.962 247.28 198.294 247.684 198.51 248.188C198.734 248.692 198.846 249.228 198.846 249.796C198.846 250.364 198.734 250.9 198.51 251.404C198.286 251.908 197.95 252.316 197.502 252.628C197.062 252.932 196.526 253.084 195.894 253.084ZM195.894 252.196C196.286 252.196 196.626 252.088 196.914 251.872C197.21 251.656 197.434 251.368 197.586 251.008C197.738 250.64 197.814 250.232 197.814 249.784C197.814 249.096 197.642 248.524 197.298 248.068C196.954 247.612 196.486 247.384 195.894 247.384C195.494 247.384 195.146 247.492 194.85 247.708C194.562 247.924 194.342 248.216 194.19 248.584C194.038 248.944 193.962 249.344 193.962 249.784C193.962 250.472 194.134 251.048 194.478 251.512C194.822 251.968 195.294 252.196 195.894 252.196ZM200.307 246.676H201.339V247.684H201.411C201.515 247.404 201.699 247.168 201.963 246.976C202.235 246.776 202.575 246.676 202.983 246.676C203.111 246.676 203.211 246.684 203.283 246.7C203.363 246.708 203.451 246.728 203.547 246.76L203.511 247.768C203.383 247.728 203.271 247.7 203.175 247.684C203.087 247.668 202.971 247.66 202.827 247.66C201.835 247.66 201.339 248.248 201.339 249.424V253H200.307V246.676ZM210.639 253.084C210.087 253.084 209.635 252.948 209.283 252.676C208.931 252.404 208.659 252.08 208.467 251.704H208.383V255.436H207.339V246.676H208.383V247.852H208.467C208.643 247.484 208.903 247.168 209.247 246.904C209.591 246.64 210.043 246.508 210.603 246.508C211.171 246.508 211.655 246.652 212.055 246.94C212.463 247.22 212.771 247.612 212.979 248.116C213.187 248.612 213.291 249.172 213.291 249.796C213.291 250.42 213.187 250.98 212.979 251.476C212.771 251.972 212.467 252.364 212.067 252.652C211.667 252.94 211.191 253.084 210.639 253.084ZM210.315 252.196C210.939 252.196 211.411 251.968 211.731 251.512C212.059 251.056 212.223 250.484 212.223 249.796C212.223 249.116 212.063 248.548 211.743 248.092C211.423 247.636 210.947 247.408 210.315 247.408C209.691 247.408 209.215 247.636 208.887 248.092C208.567 248.548 208.407 249.116 208.407 249.796C208.407 250.476 208.571 251.048 208.899 251.512C209.227 251.968 209.699 252.196 210.315 252.196ZM214.768 246.676H215.8V247.684H215.872C215.976 247.404 216.16 247.168 216.424 246.976C216.696 246.776 217.036 246.676 217.444 246.676C217.572 246.676 217.672 246.684 217.744 246.7C217.824 246.708 217.912 246.728 218.008 246.76L217.972 247.768C217.844 247.728 217.732 247.7 217.636 247.684C217.548 247.668 217.432 247.66 217.288 247.66C216.296 247.66 215.8 248.248 215.8 249.424V253H214.768V246.676ZM221.64 253.084C221 253.084 220.456 252.932 220.008 252.628C219.568 252.316 219.236 251.912 219.012 251.416C218.788 250.912 218.676 250.372 218.676 249.796C218.676 249.22 218.788 248.684 219.012 248.188C219.236 247.684 219.568 247.28 220.008 246.976C220.456 246.664 221 246.508 221.64 246.508C222.28 246.508 222.82 246.664 223.26 246.976C223.708 247.28 224.04 247.684 224.256 248.188C224.48 248.692 224.592 249.228 224.592 249.796C224.592 250.364 224.48 250.9 224.256 251.404C224.032 251.908 223.696 252.316 223.248 252.628C222.808 252.932 222.272 253.084 221.64 253.084ZM221.64 252.196C222.032 252.196 222.372 252.088 222.66 251.872C222.956 251.656 223.18 251.368 223.332 251.008C223.484 250.64 223.56 250.232 223.56 249.784C223.56 249.096 223.388 248.524 223.044 248.068C222.7 247.612 222.232 247.384 221.64 247.384C221.24 247.384 220.892 247.492 220.596 247.708C220.308 247.924 220.088 248.216 219.936 248.584C219.784 248.944 219.708 249.344 219.708 249.784C219.708 250.472 219.88 251.048 220.224 251.512C220.568 251.968 221.04 252.196 221.64 252.196ZM228.441 253.084C227.881 253.084 227.401 252.94 227.001 252.652C226.609 252.364 226.309 251.972 226.101 251.476C225.893 250.98 225.789 250.42 225.789 249.796C225.789 249.164 225.893 248.6 226.101 248.104C226.309 247.608 226.613 247.22 227.013 246.94C227.413 246.652 227.897 246.508 228.465 246.508C229.025 246.508 229.477 246.644 229.821 246.916C230.173 247.18 230.433 247.492 230.601 247.852H230.697V244H231.729V253H230.697V251.704H230.601C230.409 252.088 230.137 252.416 229.785 252.688C229.441 252.952 228.993 253.084 228.441 253.084ZM228.753 252.196C229.377 252.196 229.853 251.968 230.181 251.512C230.509 251.048 230.673 250.476 230.673 249.796C230.673 249.116 230.509 248.548 230.181 248.092C229.853 247.636 229.377 247.408 228.753 247.408C228.121 247.408 227.645 247.636 227.325 248.092C227.005 248.548 226.845 249.116 226.845 249.796C226.845 250.484 227.005 251.056 227.325 251.512C227.653 251.968 228.129 252.196 228.753 252.196ZM239.039 253H237.995V251.8H237.923C237.755 252.168 237.495 252.48 237.143 252.736C236.799 252.984 236.375 253.108 235.871 253.108C235.343 253.108 234.903 252.98 234.551 252.724C234.199 252.468 233.939 252.136 233.771 251.728C233.611 251.32 233.531 250.876 233.531 250.396V246.676H234.563V250.264C234.563 250.88 234.719 251.356 235.031 251.692C235.343 252.02 235.751 252.184 236.255 252.184C236.783 252.184 237.203 252.008 237.515 251.656C237.835 251.296 237.995 250.832 237.995 250.264V246.676H239.039V253ZM243.45 253.084C242.794 253.084 242.238 252.928 241.782 252.616C241.334 252.304 241.002 251.9 240.786 251.404C240.57 250.9 240.462 250.364 240.462 249.796C240.462 249.228 240.57 248.696 240.786 248.2C241.002 247.696 241.334 247.288 241.782 246.976C242.238 246.664 242.794 246.508 243.45 246.508C244.266 246.508 244.906 246.744 245.37 247.216C245.842 247.688 246.126 248.268 246.222 248.956H245.214C245.142 248.492 244.958 248.116 244.662 247.828C244.366 247.532 243.966 247.384 243.462 247.384C242.822 247.384 242.334 247.616 241.998 248.08C241.67 248.536 241.506 249.108 241.506 249.796C241.506 250.484 241.67 251.06 241.998 251.524C242.334 251.98 242.822 252.208 243.462 252.208C243.966 252.208 244.366 252.064 244.662 251.776C244.958 251.488 245.142 251.108 245.214 250.636H246.222C246.126 251.324 245.842 251.904 245.37 252.376C244.906 252.848 244.266 253.084 243.45 253.084ZM249.356 247.504V251.176C249.356 251.472 249.368 251.692 249.392 251.836C249.424 251.972 249.5 252.08 249.62 252.16C249.748 252.24 249.952 252.28 250.232 252.28C250.424 252.28 250.632 252.252 250.856 252.196V252.94C250.8 252.964 250.676 252.988 250.484 253.012C250.3 253.036 250.108 253.048 249.908 253.048C249.444 253.048 249.096 252.984 248.864 252.856C248.64 252.72 248.492 252.54 248.42 252.316C248.356 252.084 248.324 251.78 248.324 251.404V247.504H247.148V246.676H248.324V244.6H249.356V246.676H250.856V247.504H249.356ZM252.459 246.676H253.491V253H252.459V246.676ZM252.963 245.5C252.771 245.5 252.611 245.436 252.483 245.308C252.355 245.172 252.291 245.012 252.291 244.828C252.291 244.644 252.355 244.488 252.483 244.36C252.611 244.224 252.771 244.156 252.963 244.156C253.155 244.156 253.315 244.224 253.443 244.36C253.579 244.488 253.647 244.644 253.647 244.828C253.647 245.012 253.579 245.172 253.443 245.308C253.315 245.436 253.155 245.5 252.963 245.5ZM255.011 246.676H256.019L257.915 251.908H257.975L259.871 246.676H260.879L258.575 253H257.303L255.011 246.676ZM264.625 253.084C263.977 253.084 263.429 252.928 262.981 252.616C262.541 252.304 262.213 251.896 261.997 251.392C261.781 250.888 261.673 250.356 261.673 249.796C261.673 249.228 261.781 248.696 261.997 248.2C262.213 247.696 262.545 247.288 262.993 246.976C263.441 246.664 263.989 246.508 264.637 246.508C265.485 246.508 266.161 246.792 266.665 247.36C267.177 247.928 267.433 248.744 267.433 249.808V250.096H262.705V250.18C262.705 250.532 262.785 250.864 262.945 251.176C263.105 251.488 263.329 251.74 263.617 251.932C263.905 252.124 264.237 252.22 264.613 252.22C265.021 252.22 265.373 252.116 265.669 251.908C265.965 251.7 266.185 251.42 266.329 251.068H267.349C267.181 251.644 266.865 252.124 266.401 252.508C265.945 252.892 265.353 253.084 264.625 253.084ZM266.413 249.364C266.381 248.644 266.205 248.124 265.885 247.804C265.565 247.484 265.145 247.324 264.625 247.324C264.057 247.324 263.605 247.512 263.269 247.888C262.933 248.264 262.753 248.756 262.729 249.364H266.413ZM77.4136 264.676H78.3976L79.8016 269.872H79.8616L81.4576 264.676H82.3936L84.0136 269.872H84.0736L85.4536 264.676H86.4376L84.6976 271H83.3776L81.9736 266.38H81.8896L80.4856 271H79.1656L77.4136 264.676ZM89.843 271.084C89.283 271.084 88.803 270.94 88.403 270.652C88.011 270.364 87.711 269.972 87.503 269.476C87.295 268.98 87.191 268.42 87.191 267.796C87.191 267.172 87.295 266.612 87.503 266.116C87.719 265.612 88.027 265.22 88.427 264.94C88.835 264.652 89.319 264.508 89.879 264.508C90.439 264.508 90.891 264.64 91.235 264.904C91.579 265.168 91.839 265.484 92.015 265.852H92.099V264.676H93.143V271H92.099V269.704H92.015C91.823 270.08 91.551 270.404 91.199 270.676C90.847 270.948 90.395 271.084 89.843 271.084ZM90.167 270.196C90.783 270.196 91.255 269.968 91.583 269.512C91.911 269.048 92.075 268.476 92.075 267.796C92.075 267.116 91.911 266.548 91.583 266.092C91.255 265.628 90.783 265.396 90.167 265.396C89.535 265.396 89.055 265.624 88.727 266.08C88.407 266.536 88.247 267.104 88.247 267.784C88.247 268.472 88.407 269.048 88.727 269.512C89.055 269.968 89.535 270.196 90.167 270.196ZM97.2732 271.876C97.1452 272.18 97.0212 272.428 96.9012 272.62C96.7892 272.82 96.6012 273.008 96.3372 273.184C96.0732 273.36 95.7292 273.448 95.3052 273.448C95.0812 273.448 94.8412 273.416 94.5852 273.352V272.584C94.7772 272.616 94.9452 272.632 95.0892 272.632C95.3532 272.632 95.5652 272.58 95.7252 272.476C95.8852 272.38 96.0092 272.252 96.0972 272.092C96.1932 271.932 96.3052 271.7 96.4332 271.396L96.7212 270.688L94.3812 264.676H95.4612L97.2252 269.548H97.2972L99.1452 264.676H100.225L97.2732 271.876ZM103.539 271.084C103.027 271.084 102.583 270.984 102.207 270.784C101.831 270.576 101.543 270.312 101.343 269.992C101.151 269.672 101.055 269.336 101.055 268.984V268.924H102.087V268.972C102.087 269.172 102.143 269.372 102.255 269.572C102.367 269.764 102.535 269.924 102.759 270.052C102.983 270.172 103.255 270.232 103.575 270.232C103.959 270.232 104.275 270.14 104.523 269.956C104.779 269.764 104.907 269.504 104.907 269.176C104.907 268.904 104.807 268.688 104.607 268.528C104.415 268.368 104.171 268.264 103.875 268.216L103.047 268.096C102.527 268.016 102.091 267.84 101.739 267.568C101.387 267.288 101.211 266.884 101.211 266.356C101.211 265.772 101.419 265.32 101.835 265C102.259 264.672 102.799 264.508 103.455 264.508C103.943 264.508 104.359 264.6 104.703 264.784C105.055 264.96 105.323 265.196 105.507 265.492C105.691 265.78 105.783 266.096 105.783 266.44V266.488H104.751V266.464C104.751 266.304 104.707 266.136 104.619 265.96C104.539 265.784 104.399 265.632 104.199 265.504C103.999 265.376 103.743 265.312 103.431 265.312C103.047 265.312 102.739 265.408 102.507 265.6C102.275 265.784 102.159 266.028 102.159 266.332C102.159 266.58 102.251 266.784 102.435 266.944C102.619 267.104 102.851 267.208 103.131 267.256L104.031 267.4C104.559 267.488 105.003 267.672 105.363 267.952C105.723 268.224 105.903 268.628 105.903 269.164C105.903 269.548 105.799 269.884 105.591 270.172C105.391 270.46 105.111 270.684 104.751 270.844C104.391 271.004 103.987 271.084 103.539 271.084ZM111.789 265.504V269.176C111.789 269.472 111.801 269.692 111.825 269.836C111.857 269.972 111.933 270.08 112.053 270.16C112.181 270.24 112.385 270.28 112.665 270.28C112.857 270.28 113.065 270.252 113.289 270.196V270.94C113.233 270.964 113.109 270.988 112.917 271.012C112.733 271.036 112.541 271.048 112.341 271.048C111.877 271.048 111.529 270.984 111.297 270.856C111.073 270.72 110.925 270.54 110.853 270.316C110.789 270.084 110.757 269.78 110.757 269.404V265.504H109.581V264.676H110.757V262.6H111.789V264.676H113.289V265.504H111.789ZM117.484 271.084C116.844 271.084 116.3 270.932 115.852 270.628C115.412 270.316 115.08 269.912 114.856 269.416C114.632 268.912 114.52 268.372 114.52 267.796C114.52 267.22 114.632 266.684 114.856 266.188C115.08 265.684 115.412 265.28 115.852 264.976C116.3 264.664 116.844 264.508 117.484 264.508C118.124 264.508 118.664 264.664 119.104 264.976C119.552 265.28 119.884 265.684 120.1 266.188C120.324 266.692 120.436 267.228 120.436 267.796C120.436 268.364 120.324 268.9 120.1 269.404C119.876 269.908 119.54 270.316 119.092 270.628C118.652 270.932 118.116 271.084 117.484 271.084ZM117.484 270.196C117.876 270.196 118.216 270.088 118.504 269.872C118.8 269.656 119.024 269.368 119.176 269.008C119.328 268.64 119.404 268.232 119.404 267.784C119.404 267.096 119.232 266.524 118.888 266.068C118.544 265.612 118.076 265.384 117.484 265.384C117.084 265.384 116.736 265.492 116.44 265.708C116.152 265.924 115.932 266.216 115.78 266.584C115.628 266.944 115.552 267.344 115.552 267.784C115.552 268.472 115.724 269.048 116.068 269.512C116.412 269.968 116.884 270.196 117.484 270.196ZM127.027 271.084C126.467 271.084 125.987 270.94 125.587 270.652C125.195 270.364 124.895 269.972 124.687 269.476C124.479 268.98 124.375 268.42 124.375 267.796C124.375 267.172 124.479 266.612 124.687 266.116C124.903 265.612 125.211 265.22 125.611 264.94C126.019 264.652 126.503 264.508 127.063 264.508C127.623 264.508 128.075 264.64 128.419 264.904C128.763 265.168 129.023 265.484 129.199 265.852H129.283V264.676H130.327V271H129.283V269.704H129.199C129.007 270.08 128.735 270.404 128.383 270.676C128.031 270.948 127.579 271.084 127.027 271.084ZM127.351 270.196C127.967 270.196 128.439 269.968 128.767 269.512C129.095 269.048 129.259 268.476 129.259 267.796C129.259 267.116 129.095 266.548 128.767 266.092C128.439 265.628 127.967 265.396 127.351 265.396C126.719 265.396 126.239 265.624 125.911 266.08C125.591 266.536 125.431 267.104 125.431 267.784C125.431 268.472 125.591 269.048 125.911 269.512C126.239 269.968 126.719 270.196 127.351 270.196ZM133.772 271.048C133.3 271.048 132.948 270.972 132.716 270.82C132.484 270.668 132.336 270.472 132.272 270.232C132.216 269.984 132.188 269.664 132.188 269.272L132.2 262H133.232V269.116C133.232 269.42 133.244 269.648 133.268 269.8C133.3 269.944 133.376 270.06 133.496 270.148C133.624 270.236 133.824 270.28 134.096 270.28C134.264 270.28 134.412 270.268 134.54 270.244V270.988C134.324 271.028 134.068 271.048 133.772 271.048ZM137.545 271.048C137.073 271.048 136.721 270.972 136.489 270.82C136.257 270.668 136.109 270.472 136.045 270.232C135.989 269.984 135.961 269.664 135.961 269.272L135.973 262H137.005V269.116C137.005 269.42 137.017 269.648 137.041 269.8C137.073 269.944 137.149 270.06 137.269 270.148C137.397 270.236 137.597 270.28 137.869 270.28C138.037 270.28 138.185 270.268 138.313 270.244V270.988C138.097 271.028 137.841 271.048 137.545 271.048ZM142.363 271.084C141.715 271.084 141.167 270.928 140.719 270.616C140.279 270.304 139.951 269.896 139.735 269.392C139.519 268.888 139.411 268.356 139.411 267.796C139.411 267.228 139.519 266.696 139.735 266.2C139.951 265.696 140.283 265.288 140.731 264.976C141.179 264.664 141.727 264.508 142.375 264.508C143.223 264.508 143.899 264.792 144.403 265.36C144.915 265.928 145.171 266.744 145.171 267.808V268.096H140.443V268.18C140.443 268.532 140.523 268.864 140.683 269.176C140.843 269.488 141.067 269.74 141.355 269.932C141.643 270.124 141.975 270.22 142.351 270.22C142.759 270.22 143.111 270.116 143.407 269.908C143.703 269.7 143.923 269.42 144.067 269.068H145.087C144.919 269.644 144.603 270.124 144.139 270.508C143.683 270.892 143.091 271.084 142.363 271.084ZM144.151 267.364C144.119 266.644 143.943 266.124 143.623 265.804C143.303 265.484 142.883 265.324 142.363 265.324C141.795 265.324 141.343 265.512 141.007 265.888C140.671 266.264 140.491 266.756 140.467 267.364H144.151ZM146.144 264.676H147.152L149.048 269.908H149.108L151.004 264.676H152.012L149.708 271H148.436L146.144 264.676ZM153.377 264.676H154.409V271H153.377V264.676ZM153.881 263.5C153.689 263.5 153.529 263.436 153.401 263.308C153.273 263.172 153.209 263.012 153.209 262.828C153.209 262.644 153.273 262.488 153.401 262.36C153.529 262.224 153.689 262.156 153.881 262.156C154.073 262.156 154.233 262.224 154.361 262.36C154.497 262.488 154.565 262.644 154.565 262.828C154.565 263.012 154.497 263.172 154.361 263.308C154.233 263.436 154.073 263.5 153.881 263.5ZM158.609 271.084C158.049 271.084 157.569 270.94 157.169 270.652C156.777 270.364 156.477 269.972 156.269 269.476C156.061 268.98 155.957 268.42 155.957 267.796C155.957 267.172 156.061 266.612 156.269 266.116C156.485 265.612 156.793 265.22 157.193 264.94C157.601 264.652 158.085 264.508 158.645 264.508C159.205 264.508 159.657 264.64 160.001 264.904C160.345 265.168 160.605 265.484 160.781 265.852H160.865V264.676H161.909V271H160.865V269.704H160.781C160.589 270.08 160.317 270.404 159.965 270.676C159.613 270.948 159.161 271.084 158.609 271.084ZM158.933 270.196C159.549 270.196 160.021 269.968 160.349 269.512C160.677 269.048 160.841 268.476 160.841 267.796C160.841 267.116 160.677 266.548 160.349 266.092C160.021 265.628 159.549 265.396 158.933 265.396C158.301 265.396 157.821 265.624 157.493 266.08C157.173 266.536 157.013 267.104 157.013 267.784C157.013 268.472 157.173 269.048 157.493 269.512C157.821 269.968 158.301 270.196 158.933 270.196ZM165.461 265.504V269.176C165.461 269.472 165.473 269.692 165.497 269.836C165.529 269.972 165.605 270.08 165.725 270.16C165.853 270.24 166.057 270.28 166.337 270.28C166.529 270.28 166.737 270.252 166.961 270.196V270.94C166.905 270.964 166.781 270.988 166.589 271.012C166.405 271.036 166.213 271.048 166.013 271.048C165.549 271.048 165.201 270.984 164.969 270.856C164.745 270.72 164.597 270.54 164.525 270.316C164.461 270.084 164.429 269.78 164.429 269.404V265.504H163.253V264.676H164.429V262.6H165.461V264.676H166.961V265.504H165.461ZM171.144 271.084C170.496 271.084 169.948 270.928 169.5 270.616C169.06 270.304 168.732 269.896 168.516 269.392C168.3 268.888 168.192 268.356 168.192 267.796C168.192 267.228 168.3 266.696 168.516 266.2C168.732 265.696 169.064 265.288 169.512 264.976C169.96 264.664 170.508 264.508 171.156 264.508C172.004 264.508 172.68 264.792 173.184 265.36C173.696 265.928 173.952 266.744 173.952 267.808V268.096H169.224V268.18C169.224 268.532 169.304 268.864 169.464 269.176C169.624 269.488 169.848 269.74 170.136 269.932C170.424 270.124 170.756 270.22 171.132 270.22C171.54 270.22 171.892 270.116 172.188 269.908C172.484 269.7 172.704 269.42 172.848 269.068H173.868C173.7 269.644 173.384 270.124 172.92 270.508C172.464 270.892 171.872 271.084 171.144 271.084ZM172.932 267.364C172.9 266.644 172.724 266.124 172.404 265.804C172.084 265.484 171.664 265.324 171.144 265.324C170.576 265.324 170.124 265.512 169.788 265.888C169.452 266.264 169.272 266.756 169.248 267.364H172.932ZM180.558 271.084C179.998 271.084 179.518 270.94 179.118 270.652C178.726 270.364 178.426 269.972 178.218 269.476C178.01 268.98 177.906 268.42 177.906 267.796C177.906 267.172 178.01 266.612 178.218 266.116C178.434 265.612 178.742 265.22 179.142 264.94C179.55 264.652 180.034 264.508 180.594 264.508C181.154 264.508 181.606 264.64 181.95 264.904C182.294 265.168 182.554 265.484 182.73 265.852H182.814V264.676H183.858V271H182.814V269.704H182.73C182.538 270.08 182.266 270.404 181.914 270.676C181.562 270.948 181.11 271.084 180.558 271.084ZM180.882 270.196C181.498 270.196 181.97 269.968 182.298 269.512C182.626 269.048 182.79 268.476 182.79 267.796C182.79 267.116 182.626 266.548 182.298 266.092C181.97 265.628 181.498 265.396 180.882 265.396C180.25 265.396 179.77 265.624 179.442 266.08C179.122 266.536 178.962 267.104 178.962 267.784C178.962 268.472 179.122 269.048 179.442 269.512C179.77 269.968 180.25 270.196 180.882 270.196ZM191.737 271.084C191.185 271.084 190.733 270.948 190.381 270.676C190.029 270.404 189.757 270.08 189.565 269.704H189.481V273.436H188.437V264.676H189.481V265.852H189.565C189.741 265.484 190.001 265.168 190.345 264.904C190.689 264.64 191.141 264.508 191.701 264.508C192.269 264.508 192.753 264.652 193.153 264.94C193.561 265.22 193.869 265.612 194.077 266.116C194.285 266.612 194.389 267.172 194.389 267.796C194.389 268.42 194.285 268.98 194.077 269.476C193.869 269.972 193.565 270.364 193.165 270.652C192.765 270.94 192.289 271.084 191.737 271.084ZM191.413 270.196C192.037 270.196 192.509 269.968 192.829 269.512C193.157 269.056 193.321 268.484 193.321 267.796C193.321 267.116 193.161 266.548 192.841 266.092C192.521 265.636 192.045 265.408 191.413 265.408C190.789 265.408 190.313 265.636 189.985 266.092C189.665 266.548 189.505 267.116 189.505 267.796C189.505 268.476 189.669 269.048 189.997 269.512C190.325 269.968 190.797 270.196 191.413 270.196ZM195.866 264.676H196.898V265.684H196.97C197.074 265.404 197.258 265.168 197.522 264.976C197.794 264.776 198.134 264.676 198.542 264.676C198.67 264.676 198.77 264.684 198.842 264.7C198.922 264.708 199.01 264.728 199.106 264.76L199.07 265.768C198.942 265.728 198.83 265.7 198.734 265.684C198.646 265.668 198.53 265.66 198.386 265.66C197.394 265.66 196.898 266.248 196.898 267.424V271H195.866V264.676ZM202.738 271.084C202.098 271.084 201.554 270.932 201.106 270.628C200.666 270.316 200.334 269.912 200.11 269.416C199.886 268.912 199.774 268.372 199.774 267.796C199.774 267.22 199.886 266.684 200.11 266.188C200.334 265.684 200.666 265.28 201.106 264.976C201.554 264.664 202.098 264.508 202.738 264.508C203.378 264.508 203.918 264.664 204.358 264.976C204.806 265.28 205.138 265.684 205.354 266.188C205.578 266.692 205.69 267.228 205.69 267.796C205.69 268.364 205.578 268.9 205.354 269.404C205.13 269.908 204.794 270.316 204.346 270.628C203.906 270.932 203.37 271.084 202.738 271.084ZM202.738 270.196C203.13 270.196 203.47 270.088 203.758 269.872C204.054 269.656 204.278 269.368 204.43 269.008C204.582 268.64 204.658 268.232 204.658 267.784C204.658 267.096 204.486 266.524 204.142 266.068C203.798 265.612 203.33 265.384 202.738 265.384C202.338 265.384 201.99 265.492 201.694 265.708C201.406 265.924 201.186 266.216 201.034 266.584C200.882 266.944 200.806 267.344 200.806 267.784C200.806 268.472 200.978 269.048 201.322 269.512C201.666 269.968 202.138 270.196 202.738 270.196ZM210.487 271.084C209.935 271.084 209.483 270.948 209.131 270.676C208.779 270.404 208.507 270.08 208.315 269.704H208.231V271H207.187V262H208.231V265.852H208.315C208.491 265.484 208.751 265.168 209.095 264.904C209.439 264.64 209.891 264.508 210.451 264.508C211.019 264.508 211.503 264.652 211.903 264.94C212.311 265.22 212.619 265.612 212.827 266.116C213.035 266.612 213.139 267.172 213.139 267.796C213.139 268.42 213.035 268.98 212.827 269.476C212.619 269.972 212.315 270.364 211.915 270.652C211.515 270.94 211.039 271.084 210.487 271.084ZM210.163 270.196C210.787 270.196 211.259 269.968 211.579 269.512C211.907 269.056 212.071 268.484 212.071 267.796C212.071 267.116 211.911 266.548 211.591 266.092C211.271 265.636 210.795 265.408 210.163 265.408C209.539 265.408 209.063 265.636 208.735 266.092C208.415 266.548 208.255 267.116 208.255 267.796C208.255 268.476 208.419 269.048 208.747 269.512C209.075 269.968 209.547 270.196 210.163 270.196ZM216.237 271.048C215.765 271.048 215.413 270.972 215.181 270.82C214.949 270.668 214.801 270.472 214.737 270.232C214.681 269.984 214.653 269.664 214.653 269.272L214.665 262H215.697V269.116C215.697 269.42 215.709 269.648 215.733 269.8C215.765 269.944 215.841 270.06 215.961 270.148C216.089 270.236 216.289 270.28 216.561 270.28C216.729 270.28 216.877 270.268 217.005 270.244V270.988C216.789 271.028 216.533 271.048 216.237 271.048ZM221.054 271.084C220.406 271.084 219.858 270.928 219.41 270.616C218.97 270.304 218.642 269.896 218.426 269.392C218.21 268.888 218.102 268.356 218.102 267.796C218.102 267.228 218.21 266.696 218.426 266.2C218.642 265.696 218.974 265.288 219.422 264.976C219.87 264.664 220.418 264.508 221.066 264.508C221.914 264.508 222.59 264.792 223.094 265.36C223.606 265.928 223.862 266.744 223.862 267.808V268.096H219.134V268.18C219.134 268.532 219.214 268.864 219.374 269.176C219.534 269.488 219.758 269.74 220.046 269.932C220.334 270.124 220.666 270.22 221.042 270.22C221.45 270.22 221.802 270.116 222.098 269.908C222.394 269.7 222.614 269.42 222.758 269.068H223.778C223.61 269.644 223.294 270.124 222.83 270.508C222.374 270.892 221.782 271.084 221.054 271.084ZM222.842 267.364C222.81 266.644 222.634 266.124 222.314 265.804C221.994 265.484 221.574 265.324 221.054 265.324C220.486 265.324 220.034 265.512 219.698 265.888C219.362 266.264 219.182 266.756 219.158 267.364H222.842ZM225.386 264.676H226.406V265.84H226.502C226.518 265.76 226.598 265.616 226.742 265.408C226.886 265.192 227.106 264.988 227.402 264.796C227.698 264.604 228.066 264.508 228.506 264.508C228.97 264.508 229.354 264.616 229.658 264.832C229.97 265.048 230.202 265.28 230.354 265.528C230.506 265.776 230.582 265.932 230.582 265.996H230.678C230.79 265.716 231.01 265.4 231.338 265.048C231.674 264.688 232.186 264.508 232.874 264.508C233.386 264.508 233.814 264.64 234.158 264.904C234.502 265.16 234.754 265.492 234.914 265.9C235.082 266.308 235.166 266.744 235.166 267.208V271H234.146V267.304C234.146 266.696 233.986 266.236 233.666 265.924C233.354 265.612 232.966 265.456 232.502 265.456C232.022 265.456 231.614 265.62 231.278 265.948C230.95 266.268 230.786 266.72 230.786 267.304V271H229.766V267.304C229.766 266.696 229.606 266.236 229.286 265.924C228.974 265.612 228.586 265.456 228.122 265.456C227.642 265.456 227.234 265.62 226.898 265.948C226.57 266.268 226.406 266.72 226.406 267.304V271H225.386V264.676Z" fill="black"/>
<path d="M193.548 83.8063H209.032V85.7741L203.226 91.6774L209.032 97.5807V99.5485H193.548V83.8063Z" fill="#F9BA48"/>
<path d="M183.871 85.774H118.065V117.258H183.871V85.774Z" fill="#F9BA48"/>
<path d="M193.548 178.258H195.484V72H116.129C110.793 72 106.452 76.4137 106.452 81.8389V136.936H102.58C96.176 136.936 90.9678 142.231 90.9678 148.742C90.9678 155.253 96.176 160.548 102.58 160.548H106.452V184.161C106.452 189.586 110.793 194 116.129 194H195.484V190.064H193.548C190.347 190.064 187.742 187.416 187.742 184.161C187.742 180.907 190.347 178.258 193.548 178.258ZM110.323 156.613H106.452V140.871H110.323V156.613ZM114.194 150.71H170.323V156.613H114.194V150.71ZM174.194 142.727L182.475 148.742L174.194 154.757V142.727ZM170.323 146.774H114.194V140.871H170.323V146.774ZM94.8388 148.742C94.8388 144.401 98.3111 140.871 102.581 140.871V156.613C98.3111 156.613 94.8388 153.083 94.8388 148.742ZM185.81 190.064H116.129C112.928 190.064 110.323 187.416 110.323 184.161C110.323 180.907 112.928 178.258 116.129 178.258H185.81C184.593 179.903 183.871 181.947 183.871 184.161C183.871 186.375 184.593 188.419 185.81 190.064ZM116.129 174.323C113.942 174.323 111.945 175.092 110.323 176.342V160.549H172.878L189.136 148.742L172.878 136.936H110.323V81.8389C110.323 78.5843 112.928 75.9356 116.129 75.9356H191.613V174.323H116.129Z" fill="#333333"/>
</g>
<defs>
<clipPath id="clip0">
<rect width="300" height="300" fill="white"/>
</clipPath>
</defs>
</svg>
